%TF.GenerationSoftware,KiCad,Pcbnew,(5.1.10)-1*%
%TF.CreationDate,2021-11-10T11:22:42-03:00*%
%TF.ProjectId,circuito-cadeado,63697263-7569-4746-9f2d-636164656164,rev?*%
%TF.SameCoordinates,Original*%
%TF.FileFunction,Soldermask,Bot*%
%TF.FilePolarity,Negative*%
%FSLAX46Y46*%
G04 Gerber Fmt 4.6, Leading zero omitted, Abs format (unit mm)*
G04 Created by KiCad (PCBNEW (5.1.10)-1) date 2021-11-10 11:22:42*
%MOMM*%
%LPD*%
G01*
G04 APERTURE LIST*
%ADD10C,1.665000*%
%ADD11R,1.665000X1.665000*%
%ADD12C,1.600000*%
%ADD13R,1.700000X1.700000*%
%ADD14O,1.700000X1.700000*%
%ADD15C,1.400000*%
%ADD16O,1.400000X1.400000*%
%ADD17C,3.302000*%
%ADD18O,1.676400X3.352800*%
G04 APERTURE END LIST*
D10*
%TO.C,esp1*%
X164084000Y-101600000D03*
X164084000Y-99060000D03*
X164084000Y-96520000D03*
X164084000Y-93980000D03*
X164084000Y-91440000D03*
X164084000Y-88900000D03*
X164084000Y-86360000D03*
D11*
X164084000Y-83820000D03*
X141224000Y-83820000D03*
D10*
X141224000Y-86360000D03*
X141224000Y-88900000D03*
X141224000Y-91440000D03*
X141224000Y-93980000D03*
X141224000Y-96520000D03*
X141224000Y-99060000D03*
X141224000Y-101600000D03*
%TD*%
D12*
%TO.C,C1*%
X112776000Y-86828000D03*
X112776000Y-84328000D03*
%TD*%
%TO.C,C2*%
X132588000Y-84328000D03*
X132588000Y-86828000D03*
%TD*%
D13*
%TO.C,DivTen1*%
X104140000Y-85852000D03*
%TD*%
%TO.C,Gnd0*%
X119380000Y-92456000D03*
D14*
X121920000Y-92456000D03*
%TD*%
D13*
%TO.C,gravEsp1*%
X175768000Y-99060000D03*
D14*
X175768000Y-96520000D03*
X175768000Y-93980000D03*
X175768000Y-91440000D03*
X175768000Y-88900000D03*
X175768000Y-86360000D03*
%TD*%
D13*
%TO.C,IO0*%
X171704000Y-80772000D03*
%TD*%
%TO.C,mpu6050*%
X131064000Y-120396000D03*
D14*
X128524000Y-120396000D03*
X125984000Y-120396000D03*
X123444000Y-120396000D03*
X120904000Y-120396000D03*
X118364000Y-120396000D03*
X115824000Y-120396000D03*
X113284000Y-120396000D03*
X110744000Y-120396000D03*
%TD*%
D15*
%TO.C,R1*%
X99060000Y-89408000D03*
D16*
X99060000Y-97028000D03*
%TD*%
%TO.C,R2*%
X90932000Y-97028000D03*
D15*
X90932000Y-89408000D03*
%TD*%
%TO.C,R3*%
X94996000Y-78232000D03*
D16*
X94996000Y-85852000D03*
%TD*%
D17*
%TO.C,Reg1*%
X122428000Y-60452000D03*
D18*
X124968000Y-77978000D03*
X122428000Y-77978000D03*
X119888000Y-77978000D03*
%TD*%
D13*
%TO.C,servoM1*%
X175768000Y-112268000D03*
D14*
X175768000Y-109728000D03*
X175768000Y-107188000D03*
%TD*%
%TO.C,Vcc2*%
X106172000Y-78740000D03*
D13*
X106172000Y-76200000D03*
%TD*%
%TO.C,Vcc3*%
X132080000Y-76200000D03*
D14*
X132080000Y-78740000D03*
%TD*%
M02*
