%TF.GenerationSoftware,KiCad,Pcbnew,(5.1.10)-1*%
%TF.CreationDate,2021-11-10T11:22:41-03:00*%
%TF.ProjectId,circuito-cadeado,63697263-7569-4746-9f2d-636164656164,rev?*%
%TF.SameCoordinates,Original*%
%TF.FileFunction,Legend,Top*%
%TF.FilePolarity,Positive*%
%FSLAX46Y46*%
G04 Gerber Fmt 4.6, Leading zero omitted, Abs format (unit mm)*
G04 Created by KiCad (PCBNEW (5.1.10)-1) date 2021-11-10 11:22:41*
%MOMM*%
%LPD*%
G01*
G04 APERTURE LIST*
%ADD10C,0.100000*%
%ADD11C,0.120000*%
%ADD12C,0.010000*%
%ADD13C,0.127000*%
%ADD14C,0.050800*%
%ADD15C,0.254000*%
%ADD16C,0.150000*%
G04 APERTURE END LIST*
D10*
%TO.C,esp1*%
X139154000Y-79240000D02*
X139154000Y-119240000D01*
X166154000Y-79240000D02*
X139154000Y-79240000D01*
X166154000Y-119240000D02*
X166154000Y-79240000D01*
X139154000Y-119240000D02*
X166154000Y-119240000D01*
D11*
%TO.C,C1*%
X113896000Y-83958000D02*
X113896000Y-87198000D01*
X111656000Y-83958000D02*
X111656000Y-87198000D01*
X113896000Y-83958000D02*
X113831000Y-83958000D01*
X111721000Y-83958000D02*
X111656000Y-83958000D01*
X113896000Y-87198000D02*
X113831000Y-87198000D01*
X111721000Y-87198000D02*
X111656000Y-87198000D01*
%TO.C,C2*%
X131533000Y-87198000D02*
X131468000Y-87198000D01*
X133708000Y-87198000D02*
X133643000Y-87198000D01*
X131533000Y-83958000D02*
X131468000Y-83958000D01*
X133708000Y-83958000D02*
X133643000Y-83958000D01*
X131468000Y-83958000D02*
X131468000Y-87198000D01*
X133708000Y-83958000D02*
X133708000Y-87198000D01*
%TO.C,DivTen1*%
X104140000Y-84522000D02*
X105470000Y-84522000D01*
X105470000Y-84522000D02*
X105470000Y-85852000D01*
X105470000Y-87062000D02*
X105470000Y-87182000D01*
X102810000Y-87062000D02*
X102810000Y-87182000D01*
X102810000Y-87182000D02*
X105470000Y-87182000D01*
%TO.C,Gnd0*%
X118050000Y-92456000D02*
X118050000Y-91126000D01*
X118050000Y-91126000D02*
X119380000Y-91126000D01*
X120650000Y-91126000D02*
X123250000Y-91126000D01*
X123250000Y-93786000D02*
X123250000Y-91126000D01*
X120650000Y-93786000D02*
X123250000Y-93786000D01*
X120650000Y-93786000D02*
X120650000Y-91126000D01*
%TO.C,gravEsp1*%
X175768000Y-100390000D02*
X174438000Y-100390000D01*
X174438000Y-100390000D02*
X174438000Y-99060000D01*
X174438000Y-97790000D02*
X174438000Y-85030000D01*
X177098000Y-85030000D02*
X174438000Y-85030000D01*
X177098000Y-97790000D02*
X177098000Y-85030000D01*
X177098000Y-97790000D02*
X174438000Y-97790000D01*
%TO.C,IO0*%
X170374000Y-82102000D02*
X173034000Y-82102000D01*
X170374000Y-81982000D02*
X170374000Y-82102000D01*
X173034000Y-81982000D02*
X173034000Y-82102000D01*
X173034000Y-79442000D02*
X173034000Y-80772000D01*
X171704000Y-79442000D02*
X173034000Y-79442000D01*
%TO.C,mpu6050*%
X132394000Y-120396000D02*
X132394000Y-121726000D01*
X132394000Y-121726000D02*
X131064000Y-121726000D01*
X129794000Y-121726000D02*
X109414000Y-121726000D01*
X109414000Y-119066000D02*
X109414000Y-121726000D01*
X129794000Y-119066000D02*
X109414000Y-119066000D01*
X129794000Y-119066000D02*
X129794000Y-121726000D01*
%TO.C,R1*%
X99060000Y-96088000D02*
X99060000Y-95138000D01*
X99060000Y-90348000D02*
X99060000Y-91298000D01*
X99980000Y-95138000D02*
X99980000Y-91298000D01*
X98140000Y-95138000D02*
X99980000Y-95138000D01*
X98140000Y-91298000D02*
X98140000Y-95138000D01*
X99980000Y-91298000D02*
X98140000Y-91298000D01*
%TO.C,R2*%
X91852000Y-91298000D02*
X90012000Y-91298000D01*
X90012000Y-91298000D02*
X90012000Y-95138000D01*
X90012000Y-95138000D02*
X91852000Y-95138000D01*
X91852000Y-95138000D02*
X91852000Y-91298000D01*
X90932000Y-90348000D02*
X90932000Y-91298000D01*
X90932000Y-96088000D02*
X90932000Y-95138000D01*
%TO.C,R3*%
X94996000Y-84912000D02*
X94996000Y-83962000D01*
X94996000Y-79172000D02*
X94996000Y-80122000D01*
X95916000Y-83962000D02*
X95916000Y-80122000D01*
X94076000Y-83962000D02*
X95916000Y-83962000D01*
X94076000Y-80122000D02*
X94076000Y-83962000D01*
X95916000Y-80122000D02*
X94076000Y-80122000D01*
D12*
%TO.C,Reg1*%
G36*
X124335130Y-72898000D02*
G01*
X125603000Y-72898000D01*
X125603000Y-75696550D01*
X124335130Y-75696550D01*
X124335130Y-72898000D01*
G37*
X124335130Y-72898000D02*
X125603000Y-72898000D01*
X125603000Y-75696550D01*
X124335130Y-75696550D01*
X124335130Y-72898000D01*
G36*
X121792119Y-72898000D02*
G01*
X123063000Y-72898000D01*
X123063000Y-75697640D01*
X121792119Y-75697640D01*
X121792119Y-72898000D01*
G37*
X121792119Y-72898000D02*
X123063000Y-72898000D01*
X123063000Y-75697640D01*
X121792119Y-75697640D01*
X121792119Y-72898000D01*
G36*
X119247460Y-72898000D02*
G01*
X120523000Y-72898000D01*
X120523000Y-75699090D01*
X119247460Y-75699090D01*
X119247460Y-72898000D01*
G37*
X119247460Y-72898000D02*
X120523000Y-72898000D01*
X120523000Y-75699090D01*
X119247460Y-75699090D01*
X119247460Y-72898000D01*
G36*
X119505710Y-75692000D02*
G01*
X120269000Y-75692000D01*
X120269000Y-76329080D01*
X119505710Y-76329080D01*
X119505710Y-75692000D01*
G37*
X119505710Y-75692000D02*
X120269000Y-75692000D01*
X120269000Y-76329080D01*
X119505710Y-76329080D01*
X119505710Y-75692000D01*
G36*
X122046823Y-75692000D02*
G01*
X122809000Y-75692000D01*
X122809000Y-76329190D01*
X122046823Y-76329190D01*
X122046823Y-75692000D01*
G37*
X122046823Y-75692000D02*
X122809000Y-75692000D01*
X122809000Y-76329190D01*
X122046823Y-76329190D01*
X122046823Y-75692000D01*
G36*
X124587740Y-75692000D02*
G01*
X125349000Y-75692000D01*
X125349000Y-76328610D01*
X124587740Y-76328610D01*
X124587740Y-75692000D01*
G37*
X124587740Y-75692000D02*
X125349000Y-75692000D01*
X125349000Y-76328610D01*
X124587740Y-76328610D01*
X124587740Y-75692000D01*
D13*
X124231400Y-60452000D02*
G75*
G03*
X124231400Y-60452000I-1803400J0D01*
G01*
D14*
X117856000Y-72263000D02*
X117856000Y-64008000D01*
X127000000Y-64008000D02*
X117856000Y-64008000D01*
X127000000Y-64008000D02*
X127000000Y-72263000D01*
X117856000Y-72263000D02*
X127000000Y-72263000D01*
D13*
X117221000Y-58928000D02*
X117221000Y-57023000D01*
X117221000Y-72898000D02*
X117221000Y-60452000D01*
X127635000Y-58928000D02*
X127635000Y-57023000D01*
X127635000Y-72898000D02*
X127635000Y-60452000D01*
X127635000Y-57023000D02*
X117221000Y-57023000D01*
X117221000Y-72898000D02*
X127635000Y-72898000D01*
D11*
%TO.C,servoM1*%
X175768000Y-113598000D02*
X174438000Y-113598000D01*
X174438000Y-113598000D02*
X174438000Y-112268000D01*
X174438000Y-110998000D02*
X174438000Y-105858000D01*
X177098000Y-105858000D02*
X174438000Y-105858000D01*
X177098000Y-110998000D02*
X177098000Y-105858000D01*
X177098000Y-110998000D02*
X174438000Y-110998000D01*
%TO.C,Vcc2*%
X104842000Y-77470000D02*
X107502000Y-77470000D01*
X104842000Y-77470000D02*
X104842000Y-80070000D01*
X104842000Y-80070000D02*
X107502000Y-80070000D01*
X107502000Y-77470000D02*
X107502000Y-80070000D01*
X107502000Y-74870000D02*
X107502000Y-76200000D01*
X106172000Y-74870000D02*
X107502000Y-74870000D01*
%TO.C,Vcc3*%
X132080000Y-74870000D02*
X133410000Y-74870000D01*
X133410000Y-74870000D02*
X133410000Y-76200000D01*
X133410000Y-77470000D02*
X133410000Y-80070000D01*
X130750000Y-80070000D02*
X133410000Y-80070000D01*
X130750000Y-77470000D02*
X130750000Y-80070000D01*
X130750000Y-77470000D02*
X133410000Y-77470000D01*
%TO.C,esp1*%
D15*
X151202571Y-109914047D02*
X151081619Y-109974523D01*
X150839714Y-109974523D01*
X150718761Y-109914047D01*
X150658285Y-109793095D01*
X150658285Y-109309285D01*
X150718761Y-109188333D01*
X150839714Y-109127857D01*
X151081619Y-109127857D01*
X151202571Y-109188333D01*
X151263047Y-109309285D01*
X151263047Y-109430238D01*
X150658285Y-109551190D01*
X151746857Y-109914047D02*
X151867809Y-109974523D01*
X152109714Y-109974523D01*
X152230666Y-109914047D01*
X152291142Y-109793095D01*
X152291142Y-109732619D01*
X152230666Y-109611666D01*
X152109714Y-109551190D01*
X151928285Y-109551190D01*
X151807333Y-109490714D01*
X151746857Y-109369761D01*
X151746857Y-109309285D01*
X151807333Y-109188333D01*
X151928285Y-109127857D01*
X152109714Y-109127857D01*
X152230666Y-109188333D01*
X152835428Y-109127857D02*
X152835428Y-110397857D01*
X152835428Y-109188333D02*
X152956380Y-109127857D01*
X153198285Y-109127857D01*
X153319238Y-109188333D01*
X153379714Y-109248809D01*
X153440190Y-109369761D01*
X153440190Y-109732619D01*
X153379714Y-109853571D01*
X153319238Y-109914047D01*
X153198285Y-109974523D01*
X152956380Y-109974523D01*
X152835428Y-109914047D01*
X154649714Y-109974523D02*
X153924000Y-109974523D01*
X154286857Y-109974523D02*
X154286857Y-108704523D01*
X154165904Y-108885952D01*
X154044952Y-109006904D01*
X153924000Y-109067380D01*
%TO.C,C1*%
D16*
X115383142Y-85744666D02*
X115430761Y-85792285D01*
X115478380Y-85935142D01*
X115478380Y-86030380D01*
X115430761Y-86173238D01*
X115335523Y-86268476D01*
X115240285Y-86316095D01*
X115049809Y-86363714D01*
X114906952Y-86363714D01*
X114716476Y-86316095D01*
X114621238Y-86268476D01*
X114526000Y-86173238D01*
X114478380Y-86030380D01*
X114478380Y-85935142D01*
X114526000Y-85792285D01*
X114573619Y-85744666D01*
X115478380Y-84792285D02*
X115478380Y-85363714D01*
X115478380Y-85078000D02*
X114478380Y-85078000D01*
X114621238Y-85173238D01*
X114716476Y-85268476D01*
X114764095Y-85363714D01*
%TO.C,C2*%
X135195142Y-85744666D02*
X135242761Y-85792285D01*
X135290380Y-85935142D01*
X135290380Y-86030380D01*
X135242761Y-86173238D01*
X135147523Y-86268476D01*
X135052285Y-86316095D01*
X134861809Y-86363714D01*
X134718952Y-86363714D01*
X134528476Y-86316095D01*
X134433238Y-86268476D01*
X134338000Y-86173238D01*
X134290380Y-86030380D01*
X134290380Y-85935142D01*
X134338000Y-85792285D01*
X134385619Y-85744666D01*
X134385619Y-85363714D02*
X134338000Y-85316095D01*
X134290380Y-85220857D01*
X134290380Y-84982761D01*
X134338000Y-84887523D01*
X134385619Y-84839904D01*
X134480857Y-84792285D01*
X134576095Y-84792285D01*
X134718952Y-84839904D01*
X135290380Y-85411333D01*
X135290380Y-84792285D01*
%TO.C,DivTen1*%
X101520952Y-83534380D02*
X101520952Y-82534380D01*
X101759047Y-82534380D01*
X101901904Y-82582000D01*
X101997142Y-82677238D01*
X102044761Y-82772476D01*
X102092380Y-82962952D01*
X102092380Y-83105809D01*
X102044761Y-83296285D01*
X101997142Y-83391523D01*
X101901904Y-83486761D01*
X101759047Y-83534380D01*
X101520952Y-83534380D01*
X102520952Y-83534380D02*
X102520952Y-82867714D01*
X102520952Y-82534380D02*
X102473333Y-82582000D01*
X102520952Y-82629619D01*
X102568571Y-82582000D01*
X102520952Y-82534380D01*
X102520952Y-82629619D01*
X102901904Y-82867714D02*
X103140000Y-83534380D01*
X103378095Y-82867714D01*
X103616190Y-82534380D02*
X104187619Y-82534380D01*
X103901904Y-83534380D02*
X103901904Y-82534380D01*
X104901904Y-83486761D02*
X104806666Y-83534380D01*
X104616190Y-83534380D01*
X104520952Y-83486761D01*
X104473333Y-83391523D01*
X104473333Y-83010571D01*
X104520952Y-82915333D01*
X104616190Y-82867714D01*
X104806666Y-82867714D01*
X104901904Y-82915333D01*
X104949523Y-83010571D01*
X104949523Y-83105809D01*
X104473333Y-83201047D01*
X105378095Y-82867714D02*
X105378095Y-83534380D01*
X105378095Y-82962952D02*
X105425714Y-82915333D01*
X105520952Y-82867714D01*
X105663809Y-82867714D01*
X105759047Y-82915333D01*
X105806666Y-83010571D01*
X105806666Y-83534380D01*
X106806666Y-83534380D02*
X106235238Y-83534380D01*
X106520952Y-83534380D02*
X106520952Y-82534380D01*
X106425714Y-82677238D01*
X106330476Y-82772476D01*
X106235238Y-82820095D01*
%TO.C,Gnd0*%
X116110000Y-93575047D02*
X116062380Y-93670285D01*
X116062380Y-93813142D01*
X116110000Y-93956000D01*
X116205238Y-94051238D01*
X116300476Y-94098857D01*
X116490952Y-94146476D01*
X116633809Y-94146476D01*
X116824285Y-94098857D01*
X116919523Y-94051238D01*
X117014761Y-93956000D01*
X117062380Y-93813142D01*
X117062380Y-93717904D01*
X117014761Y-93575047D01*
X116967142Y-93527428D01*
X116633809Y-93527428D01*
X116633809Y-93717904D01*
X116395714Y-93098857D02*
X117062380Y-93098857D01*
X116490952Y-93098857D02*
X116443333Y-93051238D01*
X116395714Y-92956000D01*
X116395714Y-92813142D01*
X116443333Y-92717904D01*
X116538571Y-92670285D01*
X117062380Y-92670285D01*
X117062380Y-91765523D02*
X116062380Y-91765523D01*
X117014761Y-91765523D02*
X117062380Y-91860761D01*
X117062380Y-92051238D01*
X117014761Y-92146476D01*
X116967142Y-92194095D01*
X116871904Y-92241714D01*
X116586190Y-92241714D01*
X116490952Y-92194095D01*
X116443333Y-92146476D01*
X116395714Y-92051238D01*
X116395714Y-91860761D01*
X116443333Y-91765523D01*
X116062380Y-91098857D02*
X116062380Y-91003619D01*
X116110000Y-90908380D01*
X116157619Y-90860761D01*
X116252857Y-90813142D01*
X116443333Y-90765523D01*
X116681428Y-90765523D01*
X116871904Y-90813142D01*
X116967142Y-90860761D01*
X117014761Y-90908380D01*
X117062380Y-91003619D01*
X117062380Y-91098857D01*
X117014761Y-91194095D01*
X116967142Y-91241714D01*
X116871904Y-91289333D01*
X116681428Y-91336952D01*
X116443333Y-91336952D01*
X116252857Y-91289333D01*
X116157619Y-91241714D01*
X116110000Y-91194095D01*
X116062380Y-91098857D01*
%TO.C,gravEsp1*%
X173053714Y-101615714D02*
X173053714Y-102425238D01*
X173006095Y-102520476D01*
X172958476Y-102568095D01*
X172863238Y-102615714D01*
X172720380Y-102615714D01*
X172625142Y-102568095D01*
X173053714Y-102234761D02*
X172958476Y-102282380D01*
X172768000Y-102282380D01*
X172672761Y-102234761D01*
X172625142Y-102187142D01*
X172577523Y-102091904D01*
X172577523Y-101806190D01*
X172625142Y-101710952D01*
X172672761Y-101663333D01*
X172768000Y-101615714D01*
X172958476Y-101615714D01*
X173053714Y-101663333D01*
X173529904Y-102282380D02*
X173529904Y-101615714D01*
X173529904Y-101806190D02*
X173577523Y-101710952D01*
X173625142Y-101663333D01*
X173720380Y-101615714D01*
X173815619Y-101615714D01*
X174577523Y-102282380D02*
X174577523Y-101758571D01*
X174529904Y-101663333D01*
X174434666Y-101615714D01*
X174244190Y-101615714D01*
X174148952Y-101663333D01*
X174577523Y-102234761D02*
X174482285Y-102282380D01*
X174244190Y-102282380D01*
X174148952Y-102234761D01*
X174101333Y-102139523D01*
X174101333Y-102044285D01*
X174148952Y-101949047D01*
X174244190Y-101901428D01*
X174482285Y-101901428D01*
X174577523Y-101853809D01*
X174958476Y-101615714D02*
X175196571Y-102282380D01*
X175434666Y-101615714D01*
X175815619Y-101758571D02*
X176148952Y-101758571D01*
X176291809Y-102282380D02*
X175815619Y-102282380D01*
X175815619Y-101282380D01*
X176291809Y-101282380D01*
X176672761Y-102234761D02*
X176768000Y-102282380D01*
X176958476Y-102282380D01*
X177053714Y-102234761D01*
X177101333Y-102139523D01*
X177101333Y-102091904D01*
X177053714Y-101996666D01*
X176958476Y-101949047D01*
X176815619Y-101949047D01*
X176720380Y-101901428D01*
X176672761Y-101806190D01*
X176672761Y-101758571D01*
X176720380Y-101663333D01*
X176815619Y-101615714D01*
X176958476Y-101615714D01*
X177053714Y-101663333D01*
X177529904Y-101615714D02*
X177529904Y-102615714D01*
X177529904Y-101663333D02*
X177625142Y-101615714D01*
X177815619Y-101615714D01*
X177910857Y-101663333D01*
X177958476Y-101710952D01*
X178006095Y-101806190D01*
X178006095Y-102091904D01*
X177958476Y-102187142D01*
X177910857Y-102234761D01*
X177815619Y-102282380D01*
X177625142Y-102282380D01*
X177529904Y-102234761D01*
X178958476Y-102282380D02*
X178387047Y-102282380D01*
X178672761Y-102282380D02*
X178672761Y-101282380D01*
X178577523Y-101425238D01*
X178482285Y-101520476D01*
X178387047Y-101568095D01*
%TO.C,IO0*%
X170704000Y-78454380D02*
X170704000Y-77454380D01*
X171370666Y-77454380D02*
X171561142Y-77454380D01*
X171656380Y-77502000D01*
X171751619Y-77597238D01*
X171799238Y-77787714D01*
X171799238Y-78121047D01*
X171751619Y-78311523D01*
X171656380Y-78406761D01*
X171561142Y-78454380D01*
X171370666Y-78454380D01*
X171275428Y-78406761D01*
X171180190Y-78311523D01*
X171132571Y-78121047D01*
X171132571Y-77787714D01*
X171180190Y-77597238D01*
X171275428Y-77502000D01*
X171370666Y-77454380D01*
X172418285Y-77454380D02*
X172513523Y-77454380D01*
X172608761Y-77502000D01*
X172656380Y-77549619D01*
X172704000Y-77644857D01*
X172751619Y-77835333D01*
X172751619Y-78073428D01*
X172704000Y-78263904D01*
X172656380Y-78359142D01*
X172608761Y-78406761D01*
X172513523Y-78454380D01*
X172418285Y-78454380D01*
X172323047Y-78406761D01*
X172275428Y-78359142D01*
X172227809Y-78263904D01*
X172180190Y-78073428D01*
X172180190Y-77835333D01*
X172227809Y-77644857D01*
X172275428Y-77549619D01*
X172323047Y-77502000D01*
X172418285Y-77454380D01*
%TO.C,mpu6050*%
X134286380Y-123634095D02*
X133619714Y-123634095D01*
X133714952Y-123634095D02*
X133667333Y-123586476D01*
X133619714Y-123491238D01*
X133619714Y-123348380D01*
X133667333Y-123253142D01*
X133762571Y-123205523D01*
X134286380Y-123205523D01*
X133762571Y-123205523D02*
X133667333Y-123157904D01*
X133619714Y-123062666D01*
X133619714Y-122919809D01*
X133667333Y-122824571D01*
X133762571Y-122776952D01*
X134286380Y-122776952D01*
X133619714Y-122300761D02*
X134619714Y-122300761D01*
X133667333Y-122300761D02*
X133619714Y-122205523D01*
X133619714Y-122015047D01*
X133667333Y-121919809D01*
X133714952Y-121872190D01*
X133810190Y-121824571D01*
X134095904Y-121824571D01*
X134191142Y-121872190D01*
X134238761Y-121919809D01*
X134286380Y-122015047D01*
X134286380Y-122205523D01*
X134238761Y-122300761D01*
X133619714Y-120967428D02*
X134286380Y-120967428D01*
X133619714Y-121396000D02*
X134143523Y-121396000D01*
X134238761Y-121348380D01*
X134286380Y-121253142D01*
X134286380Y-121110285D01*
X134238761Y-121015047D01*
X134191142Y-120967428D01*
X133286380Y-120062666D02*
X133286380Y-120253142D01*
X133334000Y-120348380D01*
X133381619Y-120396000D01*
X133524476Y-120491238D01*
X133714952Y-120538857D01*
X134095904Y-120538857D01*
X134191142Y-120491238D01*
X134238761Y-120443619D01*
X134286380Y-120348380D01*
X134286380Y-120157904D01*
X134238761Y-120062666D01*
X134191142Y-120015047D01*
X134095904Y-119967428D01*
X133857809Y-119967428D01*
X133762571Y-120015047D01*
X133714952Y-120062666D01*
X133667333Y-120157904D01*
X133667333Y-120348380D01*
X133714952Y-120443619D01*
X133762571Y-120491238D01*
X133857809Y-120538857D01*
X133286380Y-119348380D02*
X133286380Y-119253142D01*
X133334000Y-119157904D01*
X133381619Y-119110285D01*
X133476857Y-119062666D01*
X133667333Y-119015047D01*
X133905428Y-119015047D01*
X134095904Y-119062666D01*
X134191142Y-119110285D01*
X134238761Y-119157904D01*
X134286380Y-119253142D01*
X134286380Y-119348380D01*
X134238761Y-119443619D01*
X134191142Y-119491238D01*
X134095904Y-119538857D01*
X133905428Y-119586476D01*
X133667333Y-119586476D01*
X133476857Y-119538857D01*
X133381619Y-119491238D01*
X133334000Y-119443619D01*
X133286380Y-119348380D01*
X133286380Y-118110285D02*
X133286380Y-118586476D01*
X133762571Y-118634095D01*
X133714952Y-118586476D01*
X133667333Y-118491238D01*
X133667333Y-118253142D01*
X133714952Y-118157904D01*
X133762571Y-118110285D01*
X133857809Y-118062666D01*
X134095904Y-118062666D01*
X134191142Y-118110285D01*
X134238761Y-118157904D01*
X134286380Y-118253142D01*
X134286380Y-118491238D01*
X134238761Y-118586476D01*
X134191142Y-118634095D01*
X133286380Y-117443619D02*
X133286380Y-117348380D01*
X133334000Y-117253142D01*
X133381619Y-117205523D01*
X133476857Y-117157904D01*
X133667333Y-117110285D01*
X133905428Y-117110285D01*
X134095904Y-117157904D01*
X134191142Y-117205523D01*
X134238761Y-117253142D01*
X134286380Y-117348380D01*
X134286380Y-117443619D01*
X134238761Y-117538857D01*
X134191142Y-117586476D01*
X134095904Y-117634095D01*
X133905428Y-117681714D01*
X133667333Y-117681714D01*
X133476857Y-117634095D01*
X133381619Y-117586476D01*
X133334000Y-117538857D01*
X133286380Y-117443619D01*
%TO.C,R1*%
X101432380Y-93384666D02*
X100956190Y-93718000D01*
X101432380Y-93956095D02*
X100432380Y-93956095D01*
X100432380Y-93575142D01*
X100480000Y-93479904D01*
X100527619Y-93432285D01*
X100622857Y-93384666D01*
X100765714Y-93384666D01*
X100860952Y-93432285D01*
X100908571Y-93479904D01*
X100956190Y-93575142D01*
X100956190Y-93956095D01*
X101432380Y-92432285D02*
X101432380Y-93003714D01*
X101432380Y-92718000D02*
X100432380Y-92718000D01*
X100575238Y-92813238D01*
X100670476Y-92908476D01*
X100718095Y-93003714D01*
%TO.C,R2*%
X93304380Y-93384666D02*
X92828190Y-93718000D01*
X93304380Y-93956095D02*
X92304380Y-93956095D01*
X92304380Y-93575142D01*
X92352000Y-93479904D01*
X92399619Y-93432285D01*
X92494857Y-93384666D01*
X92637714Y-93384666D01*
X92732952Y-93432285D01*
X92780571Y-93479904D01*
X92828190Y-93575142D01*
X92828190Y-93956095D01*
X92399619Y-93003714D02*
X92352000Y-92956095D01*
X92304380Y-92860857D01*
X92304380Y-92622761D01*
X92352000Y-92527523D01*
X92399619Y-92479904D01*
X92494857Y-92432285D01*
X92590095Y-92432285D01*
X92732952Y-92479904D01*
X93304380Y-93051333D01*
X93304380Y-92432285D01*
%TO.C,R3*%
X97368380Y-82208666D02*
X96892190Y-82542000D01*
X97368380Y-82780095D02*
X96368380Y-82780095D01*
X96368380Y-82399142D01*
X96416000Y-82303904D01*
X96463619Y-82256285D01*
X96558857Y-82208666D01*
X96701714Y-82208666D01*
X96796952Y-82256285D01*
X96844571Y-82303904D01*
X96892190Y-82399142D01*
X96892190Y-82780095D01*
X96368380Y-81875333D02*
X96368380Y-81256285D01*
X96749333Y-81589619D01*
X96749333Y-81446761D01*
X96796952Y-81351523D01*
X96844571Y-81303904D01*
X96939809Y-81256285D01*
X97177904Y-81256285D01*
X97273142Y-81303904D01*
X97320761Y-81351523D01*
X97368380Y-81446761D01*
X97368380Y-81732476D01*
X97320761Y-81827714D01*
X97273142Y-81875333D01*
%TO.C,Reg1*%
X121595108Y-66157329D02*
X121127759Y-65489687D01*
X120793939Y-66157329D02*
X120793939Y-64755282D01*
X121328052Y-64755282D01*
X121461580Y-64822046D01*
X121528344Y-64888810D01*
X121595108Y-65022338D01*
X121595108Y-65222631D01*
X121528344Y-65356159D01*
X121461580Y-65422923D01*
X121328052Y-65489687D01*
X120793939Y-65489687D01*
X122730099Y-66090565D02*
X122596571Y-66157329D01*
X122329514Y-66157329D01*
X122195986Y-66090565D01*
X122129222Y-65957036D01*
X122129222Y-65422923D01*
X122195986Y-65289395D01*
X122329514Y-65222631D01*
X122596571Y-65222631D01*
X122730099Y-65289395D01*
X122796863Y-65422923D01*
X122796863Y-65556452D01*
X122129222Y-65689980D01*
X123998618Y-65222631D02*
X123998618Y-66357621D01*
X123931853Y-66491150D01*
X123865089Y-66557914D01*
X123731561Y-66624678D01*
X123531269Y-66624678D01*
X123397740Y-66557914D01*
X123998618Y-66090565D02*
X123865089Y-66157329D01*
X123598033Y-66157329D01*
X123464504Y-66090565D01*
X123397740Y-66023801D01*
X123330976Y-65890272D01*
X123330976Y-65489687D01*
X123397740Y-65356159D01*
X123464504Y-65289395D01*
X123598033Y-65222631D01*
X123865089Y-65222631D01*
X123998618Y-65289395D01*
X125400665Y-66157329D02*
X124599495Y-66157329D01*
X125000080Y-66157329D02*
X125000080Y-64755282D01*
X124866551Y-64955574D01*
X124733023Y-65089103D01*
X124599495Y-65155867D01*
%TO.C,servoM1*%
X172934666Y-115442761D02*
X173029904Y-115490380D01*
X173220380Y-115490380D01*
X173315619Y-115442761D01*
X173363238Y-115347523D01*
X173363238Y-115299904D01*
X173315619Y-115204666D01*
X173220380Y-115157047D01*
X173077523Y-115157047D01*
X172982285Y-115109428D01*
X172934666Y-115014190D01*
X172934666Y-114966571D01*
X172982285Y-114871333D01*
X173077523Y-114823714D01*
X173220380Y-114823714D01*
X173315619Y-114871333D01*
X174172761Y-115442761D02*
X174077523Y-115490380D01*
X173887047Y-115490380D01*
X173791809Y-115442761D01*
X173744190Y-115347523D01*
X173744190Y-114966571D01*
X173791809Y-114871333D01*
X173887047Y-114823714D01*
X174077523Y-114823714D01*
X174172761Y-114871333D01*
X174220380Y-114966571D01*
X174220380Y-115061809D01*
X173744190Y-115157047D01*
X174648952Y-115490380D02*
X174648952Y-114823714D01*
X174648952Y-115014190D02*
X174696571Y-114918952D01*
X174744190Y-114871333D01*
X174839428Y-114823714D01*
X174934666Y-114823714D01*
X175172761Y-114823714D02*
X175410857Y-115490380D01*
X175648952Y-114823714D01*
X176172761Y-115490380D02*
X176077523Y-115442761D01*
X176029904Y-115395142D01*
X175982285Y-115299904D01*
X175982285Y-115014190D01*
X176029904Y-114918952D01*
X176077523Y-114871333D01*
X176172761Y-114823714D01*
X176315619Y-114823714D01*
X176410857Y-114871333D01*
X176458476Y-114918952D01*
X176506095Y-115014190D01*
X176506095Y-115299904D01*
X176458476Y-115395142D01*
X176410857Y-115442761D01*
X176315619Y-115490380D01*
X176172761Y-115490380D01*
X176934666Y-115490380D02*
X176934666Y-114490380D01*
X177268000Y-115204666D01*
X177601333Y-114490380D01*
X177601333Y-115490380D01*
X178601333Y-115490380D02*
X178029904Y-115490380D01*
X178315619Y-115490380D02*
X178315619Y-114490380D01*
X178220380Y-114633238D01*
X178125142Y-114728476D01*
X178029904Y-114776095D01*
%TO.C,Vcc2*%
X104505333Y-72882380D02*
X104838666Y-73882380D01*
X105172000Y-72882380D01*
X105933904Y-73834761D02*
X105838666Y-73882380D01*
X105648190Y-73882380D01*
X105552952Y-73834761D01*
X105505333Y-73787142D01*
X105457714Y-73691904D01*
X105457714Y-73406190D01*
X105505333Y-73310952D01*
X105552952Y-73263333D01*
X105648190Y-73215714D01*
X105838666Y-73215714D01*
X105933904Y-73263333D01*
X106791047Y-73834761D02*
X106695809Y-73882380D01*
X106505333Y-73882380D01*
X106410095Y-73834761D01*
X106362476Y-73787142D01*
X106314857Y-73691904D01*
X106314857Y-73406190D01*
X106362476Y-73310952D01*
X106410095Y-73263333D01*
X106505333Y-73215714D01*
X106695809Y-73215714D01*
X106791047Y-73263333D01*
X107172000Y-72977619D02*
X107219619Y-72930000D01*
X107314857Y-72882380D01*
X107552952Y-72882380D01*
X107648190Y-72930000D01*
X107695809Y-72977619D01*
X107743428Y-73072857D01*
X107743428Y-73168095D01*
X107695809Y-73310952D01*
X107124380Y-73882380D01*
X107743428Y-73882380D01*
%TO.C,Vcc3*%
X130413333Y-72882380D02*
X130746666Y-73882380D01*
X131080000Y-72882380D01*
X131841904Y-73834761D02*
X131746666Y-73882380D01*
X131556190Y-73882380D01*
X131460952Y-73834761D01*
X131413333Y-73787142D01*
X131365714Y-73691904D01*
X131365714Y-73406190D01*
X131413333Y-73310952D01*
X131460952Y-73263333D01*
X131556190Y-73215714D01*
X131746666Y-73215714D01*
X131841904Y-73263333D01*
X132699047Y-73834761D02*
X132603809Y-73882380D01*
X132413333Y-73882380D01*
X132318095Y-73834761D01*
X132270476Y-73787142D01*
X132222857Y-73691904D01*
X132222857Y-73406190D01*
X132270476Y-73310952D01*
X132318095Y-73263333D01*
X132413333Y-73215714D01*
X132603809Y-73215714D01*
X132699047Y-73263333D01*
X133032380Y-72882380D02*
X133651428Y-72882380D01*
X133318095Y-73263333D01*
X133460952Y-73263333D01*
X133556190Y-73310952D01*
X133603809Y-73358571D01*
X133651428Y-73453809D01*
X133651428Y-73691904D01*
X133603809Y-73787142D01*
X133556190Y-73834761D01*
X133460952Y-73882380D01*
X133175238Y-73882380D01*
X133080000Y-73834761D01*
X133032380Y-73787142D01*
%TD*%
M02*
