%TF.GenerationSoftware,KiCad,Pcbnew,(5.1.10)-1*%
%TF.CreationDate,2021-11-10T11:22:41-03:00*%
%TF.ProjectId,circuito-cadeado,63697263-7569-4746-9f2d-636164656164,rev?*%
%TF.SameCoordinates,Original*%
%TF.FileFunction,Copper,L2,Bot*%
%TF.FilePolarity,Positive*%
%FSLAX46Y46*%
G04 Gerber Fmt 4.6, Leading zero omitted, Abs format (unit mm)*
G04 Created by KiCad (PCBNEW (5.1.10)-1) date 2021-11-10 11:22:41*
%MOMM*%
%LPD*%
G01*
G04 APERTURE LIST*
%TA.AperFunction,ComponentPad*%
%ADD10C,1.665000*%
%TD*%
%TA.AperFunction,ComponentPad*%
%ADD11R,1.665000X1.665000*%
%TD*%
%TA.AperFunction,ComponentPad*%
%ADD12C,1.600000*%
%TD*%
%TA.AperFunction,ComponentPad*%
%ADD13R,1.700000X1.700000*%
%TD*%
%TA.AperFunction,ComponentPad*%
%ADD14O,1.700000X1.700000*%
%TD*%
%TA.AperFunction,ComponentPad*%
%ADD15C,1.400000*%
%TD*%
%TA.AperFunction,ComponentPad*%
%ADD16O,1.400000X1.400000*%
%TD*%
%TA.AperFunction,ComponentPad*%
%ADD17O,1.676400X3.352800*%
%TD*%
%TA.AperFunction,Conductor*%
%ADD18C,0.800000*%
%TD*%
%TA.AperFunction,Conductor*%
%ADD19C,0.500000*%
%TD*%
G04 APERTURE END LIST*
D10*
%TO.P,esp1,16*%
%TO.N,Net-(esp1-Pad16)*%
X164084000Y-101600000D03*
%TO.P,esp1,15*%
%TO.N,Net-(esp1-Pad15)*%
X164084000Y-99060000D03*
%TO.P,esp1,14*%
%TO.N,Net-(esp1-Pad14)*%
X164084000Y-96520000D03*
%TO.P,esp1,13*%
%TO.N,Net-(esp1-Pad13)*%
X164084000Y-93980000D03*
%TO.P,esp1,12*%
%TO.N,Net-(esp1-Pad12)*%
X164084000Y-91440000D03*
%TO.P,esp1,11*%
%TO.N,Net-(IO0-Pad1)*%
X164084000Y-88900000D03*
%TO.P,esp1,10*%
%TO.N,Net-(esp1-Pad10)*%
X164084000Y-86360000D03*
D11*
%TO.P,esp1,9*%
%TO.N,Net-(esp1-Pad9)*%
X164084000Y-83820000D03*
%TO.P,esp1,8*%
%TO.N,Net-(C2-Pad1)*%
X141224000Y-83820000D03*
D10*
%TO.P,esp1,7*%
%TO.N,GNDREF*%
X141224000Y-86360000D03*
%TO.P,esp1,6*%
%TO.N,Net-(esp1-Pad6)*%
X141224000Y-88900000D03*
%TO.P,esp1,5*%
%TO.N,Net-(esp1-Pad5)*%
X141224000Y-91440000D03*
%TO.P,esp1,4*%
%TO.N,Net-(esp1-Pad4)*%
X141224000Y-93980000D03*
%TO.P,esp1,3*%
%TO.N,Net-(esp1-Pad3)*%
X141224000Y-96520000D03*
%TO.P,esp1,2*%
%TO.N,Net-(esp1-Pad2)*%
X141224000Y-99060000D03*
%TO.P,esp1,1*%
%TO.N,Net-(esp1-Pad1)*%
X141224000Y-101600000D03*
%TD*%
D12*
%TO.P,C1,2*%
%TO.N,GNDREF*%
X112776000Y-86828000D03*
%TO.P,C1,1*%
%TO.N,+9V*%
X112776000Y-84328000D03*
%TD*%
%TO.P,C2,1*%
%TO.N,Net-(C2-Pad1)*%
X132588000Y-84328000D03*
%TO.P,C2,2*%
%TO.N,GNDREF*%
X132588000Y-86828000D03*
%TD*%
D13*
%TO.P,DivTen1,1*%
%TO.N,Net-(DivTen1-Pad1)*%
X104140000Y-85852000D03*
%TD*%
%TO.P,Gnd0,1*%
%TO.N,GNDREF*%
X119380000Y-92456000D03*
D14*
%TO.P,Gnd0,2*%
X121920000Y-92456000D03*
%TD*%
D13*
%TO.P,gravEsp1,1*%
%TO.N,Net-(esp1-Pad16)*%
X175768000Y-99060000D03*
D14*
%TO.P,gravEsp1,2*%
%TO.N,Net-(gravEsp1-Pad2)*%
X175768000Y-96520000D03*
%TO.P,gravEsp1,3*%
%TO.N,Net-(C2-Pad1)*%
X175768000Y-93980000D03*
%TO.P,gravEsp1,4*%
%TO.N,Net-(esp1-Pad15)*%
X175768000Y-91440000D03*
%TO.P,gravEsp1,5*%
%TO.N,Net-(esp1-Pad14)*%
X175768000Y-88900000D03*
%TO.P,gravEsp1,6*%
%TO.N,Net-(gravEsp1-Pad6)*%
X175768000Y-86360000D03*
%TD*%
D13*
%TO.P,IO0,1*%
%TO.N,Net-(IO0-Pad1)*%
X171704000Y-80772000D03*
%TD*%
%TO.P,mpu6050,1*%
%TO.N,Net-(mpu6050-Pad1)*%
X131064000Y-120396000D03*
D14*
%TO.P,mpu6050,2*%
%TO.N,Net-(mpu6050-Pad2)*%
X128524000Y-120396000D03*
%TO.P,mpu6050,3*%
%TO.N,Net-(mpu6050-Pad3)*%
X125984000Y-120396000D03*
%TO.P,mpu6050,4*%
%TO.N,Net-(mpu6050-Pad4)*%
X123444000Y-120396000D03*
%TO.P,mpu6050,5*%
%TO.N,Net-(esp1-Pad4)*%
X120904000Y-120396000D03*
%TO.P,mpu6050,6*%
%TO.N,Net-(esp1-Pad3)*%
X118364000Y-120396000D03*
%TO.P,mpu6050,7*%
%TO.N,GNDREF*%
X115824000Y-120396000D03*
%TO.P,mpu6050,8*%
%TO.N,Net-(esp1-Pad9)*%
X113284000Y-120396000D03*
%TO.P,mpu6050,9*%
%TO.N,N/C*%
X110744000Y-120396000D03*
%TD*%
D15*
%TO.P,R1,1*%
%TO.N,Net-(DivTen1-Pad1)*%
X99060000Y-89408000D03*
D16*
%TO.P,R1,2*%
%TO.N,GNDREF*%
X99060000Y-97028000D03*
%TD*%
%TO.P,R2,2*%
%TO.N,GNDREF*%
X90932000Y-97028000D03*
D15*
%TO.P,R2,1*%
%TO.N,Net-(DivTen1-Pad1)*%
X90932000Y-89408000D03*
%TD*%
%TO.P,R3,1*%
%TO.N,+9V*%
X94996000Y-78232000D03*
D16*
%TO.P,R3,2*%
%TO.N,Net-(DivTen1-Pad1)*%
X94996000Y-85852000D03*
%TD*%
D17*
%TO.P,Reg1,3*%
%TO.N,Net-(C2-Pad1)*%
X124968000Y-77978000D03*
%TO.P,Reg1,2*%
%TO.N,GNDREF*%
X122428000Y-77978000D03*
%TO.P,Reg1,1*%
%TO.N,+9V*%
X119888000Y-77978000D03*
%TD*%
D13*
%TO.P,servoM1,1*%
%TO.N,Net-(esp1-Pad1)*%
X175768000Y-112268000D03*
D14*
%TO.P,servoM1,2*%
%TO.N,Net-(C2-Pad1)*%
X175768000Y-109728000D03*
%TO.P,servoM1,3*%
%TO.N,Net-(esp1-Pad12)*%
X175768000Y-107188000D03*
%TD*%
%TO.P,Vcc2,2*%
%TO.N,+9V*%
X106172000Y-78740000D03*
D13*
%TO.P,Vcc2,1*%
X106172000Y-76200000D03*
%TD*%
%TO.P,Vcc3,1*%
%TO.N,Net-(C2-Pad1)*%
X132080000Y-76200000D03*
D14*
%TO.P,Vcc3,2*%
X132080000Y-78740000D03*
%TD*%
D18*
%TO.N,GNDREF*%
X112776000Y-86828000D02*
X112776000Y-91440000D01*
X113792000Y-92456000D02*
X119380000Y-92456000D01*
X112776000Y-91440000D02*
X113792000Y-92456000D01*
X122428000Y-77978000D02*
X122428000Y-91948000D01*
X122428000Y-91948000D02*
X121920000Y-92456000D01*
X121920000Y-92456000D02*
X130048000Y-92456000D01*
X130048000Y-92456000D02*
X132588000Y-89916000D01*
X132588000Y-89916000D02*
X132588000Y-86828000D01*
X132588000Y-86828000D02*
X140208000Y-86828000D01*
X140756000Y-86828000D02*
X141224000Y-86360000D01*
X140208000Y-86828000D02*
X140756000Y-86828000D01*
X140756000Y-86828000D02*
X141224000Y-86360000D01*
X113792000Y-92456000D02*
X113792000Y-97536000D01*
X113792000Y-97536000D02*
X113792000Y-107188000D01*
X115824000Y-109220000D02*
X115824000Y-120396000D01*
X113792000Y-107188000D02*
X115824000Y-109220000D01*
X119380000Y-92456000D02*
X121920000Y-92456000D01*
X90932000Y-97028000D02*
X99060000Y-97028000D01*
X99060000Y-97028000D02*
X113284000Y-97028000D01*
X113284000Y-97028000D02*
X113792000Y-97536000D01*
%TO.N,+9V*%
X119888000Y-77978000D02*
X114046000Y-77978000D01*
X114046000Y-77978000D02*
X112776000Y-79248000D01*
X112776000Y-79248000D02*
X112776000Y-84328000D01*
X106172000Y-78740000D02*
X112268000Y-78740000D01*
X112268000Y-78740000D02*
X112776000Y-79248000D01*
X106172000Y-78740000D02*
X102108000Y-78740000D01*
X102108000Y-78740000D02*
X101600000Y-78232000D01*
D19*
X102108000Y-78740000D02*
X101600000Y-78232000D01*
D18*
X101600000Y-78232000D02*
X94996000Y-78232000D01*
%TO.N,Net-(C2-Pad1)*%
X124968000Y-77978000D02*
X131318000Y-77978000D01*
X131318000Y-77978000D02*
X132080000Y-78740000D01*
X132080000Y-78740000D02*
X132080000Y-83820000D01*
X132080000Y-83820000D02*
X132588000Y-84328000D01*
X132080000Y-78740000D02*
X132080000Y-76200000D01*
X132588000Y-84328000D02*
X140716000Y-84328000D01*
X140716000Y-84328000D02*
X141224000Y-83820000D01*
X175768000Y-93980000D02*
X178308000Y-93980000D01*
X133096000Y-78740000D02*
X132080000Y-78740000D01*
X136652000Y-75184000D02*
X133096000Y-78740000D01*
X180340000Y-75184000D02*
X136652000Y-75184000D01*
X180340000Y-91948000D02*
X180340000Y-75184000D01*
X178308000Y-93980000D02*
X180340000Y-91948000D01*
X180340000Y-91948000D02*
X180340000Y-106680000D01*
X177292000Y-109728000D02*
X175768000Y-109728000D01*
X180340000Y-106680000D02*
X177292000Y-109728000D01*
%TO.N,Net-(DivTen1-Pad1)*%
X94996000Y-85852000D02*
X95504000Y-85852000D01*
X95504000Y-85852000D02*
X97536000Y-87884000D01*
X97536000Y-87884000D02*
X99060000Y-89408000D01*
X94996000Y-85852000D02*
X94488000Y-85852000D01*
X94488000Y-85852000D02*
X90932000Y-89408000D01*
X104140000Y-85852000D02*
X99060000Y-85852000D01*
X97536000Y-87376000D02*
X97536000Y-87884000D01*
X99060000Y-85852000D02*
X97536000Y-87376000D01*
%TO.N,Net-(esp1-Pad16)*%
X164084000Y-101600000D02*
X169672000Y-101600000D01*
X172212000Y-99060000D02*
X175768000Y-99060000D01*
X169672000Y-101600000D02*
X172212000Y-99060000D01*
%TO.N,Net-(esp1-Pad15)*%
X164084000Y-99060000D02*
X167132000Y-99060000D01*
X174752000Y-91440000D02*
X175768000Y-91440000D01*
X167132000Y-99060000D02*
X174752000Y-91440000D01*
%TO.N,Net-(esp1-Pad14)*%
X164084000Y-96520000D02*
X166116000Y-96520000D01*
X173736000Y-88900000D02*
X175768000Y-88900000D01*
X166116000Y-96520000D02*
X173736000Y-88900000D01*
%TO.N,Net-(esp1-Pad12)*%
X164084000Y-91440000D02*
X161544000Y-91440000D01*
X162560000Y-107188000D02*
X175768000Y-107188000D01*
X159512000Y-104140000D02*
X162560000Y-107188000D01*
X159512000Y-93472000D02*
X159512000Y-104140000D01*
X161544000Y-91440000D02*
X159512000Y-93472000D01*
%TO.N,Net-(IO0-Pad1)*%
X164084000Y-88900000D02*
X166624000Y-88900000D01*
X171704000Y-83820000D02*
X171704000Y-80772000D01*
X166624000Y-88900000D02*
X171704000Y-83820000D01*
%TO.N,Net-(esp1-Pad9)*%
X113284000Y-120396000D02*
X113284000Y-123444000D01*
X152400000Y-95504000D02*
X164084000Y-83820000D01*
X152400000Y-109728000D02*
X152400000Y-95504000D01*
X137668000Y-124460000D02*
X152400000Y-109728000D01*
X114300000Y-124460000D02*
X137668000Y-124460000D01*
X113284000Y-123444000D02*
X114300000Y-124460000D01*
%TO.N,Net-(esp1-Pad4)*%
X120904000Y-120396000D02*
X120904000Y-111760000D01*
X144272000Y-93980000D02*
X141224000Y-93980000D01*
X146812000Y-96520000D02*
X144272000Y-93980000D01*
X146812000Y-102108000D02*
X146812000Y-96520000D01*
X144272000Y-104648000D02*
X146812000Y-102108000D01*
X128016000Y-104648000D02*
X144272000Y-104648000D01*
X120904000Y-111760000D02*
X128016000Y-104648000D01*
%TO.N,Net-(esp1-Pad3)*%
X118364000Y-120396000D02*
X118364000Y-109220000D01*
X131064000Y-96520000D02*
X141224000Y-96520000D01*
X118364000Y-109220000D02*
X131064000Y-96520000D01*
%TD*%
M02*
