M48
; DRILL file {KiCad (5.1.10)-1} date 11/10/21 11:23:01
; FORMAT={-:-/ absolute / inch / decimal}
; #@! TF.CreationDate,2021-11-10T11:23:01-03:00
; #@! TF.GenerationSoftware,Kicad,Pcbnew,(5.1.10)-1
; #@! TF.FileFunction,Plated,1,2,PTH
FMAT,2
INCH
T1C0.0276
T2C0.0315
T3C0.0394
T4C0.0437
T5C0.0440
%
G90
G05
T1
X3.58Y-3.52
X3.58Y-3.82
X3.74Y-3.08
X3.74Y-3.38
X3.9Y-3.52
X3.9Y-3.82
T2
X4.44Y-3.32
X4.44Y-3.4184
X5.22Y-3.32
X5.22Y-3.4184
T3
X4.1Y-3.38
X4.18Y-3.0
X4.18Y-3.1
X4.36Y-4.74
X4.46Y-4.74
X4.56Y-4.74
X4.66Y-4.74
X4.7Y-3.64
X4.76Y-4.74
X4.8Y-3.64
X4.86Y-4.74
X4.96Y-4.74
X5.06Y-4.74
X5.16Y-4.74
X5.2Y-3.0
X5.2Y-3.1
X6.76Y-3.18
X6.92Y-3.4
X6.92Y-3.5
X6.92Y-3.6
X6.92Y-3.7
X6.92Y-3.8
X6.92Y-3.9
X6.92Y-4.22
X6.92Y-4.32
X6.92Y-4.42
T4
X5.56Y-3.3
X5.56Y-3.4
X5.56Y-3.5
X5.56Y-3.6
X5.56Y-3.7
X5.56Y-3.8
X5.56Y-3.9
X5.56Y-4.0
X6.46Y-3.3
X6.46Y-3.4
X6.46Y-3.5
X6.46Y-3.6
X6.46Y-3.7
X6.46Y-3.8
X6.46Y-3.9
X6.46Y-4.0
T5
X4.72Y-3.07
X4.82Y-3.07
X4.92Y-3.07
T0
M30
